<?xml version="1.0" encoding="utf-8"?>
<!-- Generator: Adobe Illustrator 25.4.1, SVG Export Plug-In . SVG Version: 6.00 Build 0)  -->
<svg version="1.1" id="Ebene_1" xmlns="http://www.w3.org/2000/svg" xmlns:xlink="http://www.w3.org/1999/xlink" x="0px" y="0px"
	 viewBox="0 0 227.6 92" style="enable-background:new 0 0 227.6 92;" xml:space="preserve">
<style type="text/css">
	.st0{fill:#494949;}
	.st1{fill:#6EFFEE;}
	.st2{opacity:0.47;}
</style>
<g id="Ebene_2_00000003101081508232776700000013725882454876003229_">
	<g id="Ebene_1-2">
		<g>
			<path class="st0" d="M171,41.5c0.4-1.7,1.1-3.5,2.3-5.3c1.2-1.8,2.8-3.3,4.8-4.4h13c1.9,1.1,3.5,2.5,4.6,4.3
				c1.2,1.8,1.9,3.6,2.4,5.5H171z M206.1,48.3v-1.9c0-5.2-1.2-9.7-3.7-13.4c-2.5-3.8-5.7-6.5-9.7-8.2h-16.4
				c-3.9,1.7-7.1,4.4-9.6,8.1c-2.5,3.7-3.8,8.2-3.8,13.5c0,3.5,0.6,6.6,1.7,9.5c1.2,2.8,2.7,5.3,4.6,7.3c1.9,2.1,4.2,3.6,6.9,4.8
				c2.6,1.1,5.4,1.7,8.4,1.7c1.9,0,4-0.2,6.2-0.7c2.2-0.5,4.2-1.2,6.1-2.3c1.9-1,3.6-2.4,5.1-4.1c1.5-1.7,2.6-3.8,3.3-6.3h-7.5
				c-1.7,2.2-3.6,3.8-5.7,4.8c-2.1,1-4.6,1.6-7.6,1.6c-1.9,0-3.8-0.4-5.5-1.1c-1.7-0.8-3.2-1.8-4.4-3.1c-1.2-1.3-2.2-2.8-3-4.5
				c-0.8-1.7-1.2-3.6-1.3-5.5H206.1z"/>
			<g>
				<polygon class="st0" points="89.3,53.1 75.8,24.6 67.6,24.6 85.6,62 79.3,75.4 63.6,75.4 63.6,82.9 71.2,82.9 83.7,82.9 
					108.9,24.6 101.1,24.6 				"/>
				<polygon class="st0" points="117,24.5 117,67.7 124.5,67.7 124.5,31.5 146.9,31.5 146.7,67.7 154.2,67.7 154.2,24.5 				"/>
			</g>
			<polygon class="st0" points="0,24.7 0,67.9 7.5,67.9 7.5,31.7 26,31.7 25.9,67.9 33.4,67.9 33.4,31.7 51.9,31.7 51.9,67.9 
				59.3,67.9 59.3,24.7 			"/>
		</g>
		<g transform="translate(206.62)">
			
				<image style="overflow:visible;enable-background:new    ;" width="21" height="92" id="image" xlink:href="18BD89A2CBECB616.png"  transform="matrix(1 0 0 1 206.62 1.682071e-05)">
			</image>
		</g>
		<rect x="215.2" y="8.8" class="st1" width="3.9" height="74"/>
		<g class="st2">
			<g transform="translate(206.62)">
				
					<image style="overflow:visible;enable-background:new    ;" width="21" height="92" id="image_00000072965076382693473720000015450943484358717620_" xlink:href="18BD89A2CBECB611.png"  transform="matrix(1 0 0 1 206.62 1.682071e-05)">
				</image>
			</g>
			<rect x="215.2" y="8.8" class="st1" width="3.9" height="74"/>
		</g>
	</g>
</g>
</svg>